<svg id="Component_23_1" data-name="Component 23 – 1" xmlns="http://www.w3.org/2000/svg" width="32" height="32" viewBox="0 0 32 32">
  <g id="Ellipse_7" data-name="Ellipse 7" fill="none" stroke="#fff" stroke-width="1">
    <circle cx="16" cy="16" r="16" stroke="none"/>
    <circle cx="16" cy="16" r="15.5" fill="none"/>
  </g>
  <g id="Group_499" data-name="Group 499" transform="translate(9 9)">
    <g id="Group_498" data-name="Group 498">
      <path id="Path_7" data-name="Path 7" d="M10.5,0h-7A3.51,3.51,0,0,0,0,3.5v7A3.511,3.511,0,0,0,3.5,14h7A3.511,3.511,0,0,0,14,10.5v-7A3.51,3.51,0,0,0,10.5,0ZM7,9.917A2.917,2.917,0,1,1,9.917,7,2.917,2.917,0,0,1,7,9.917Zm3.792-5.833a.875.875,0,1,1,.875-.875A.875.875,0,0,1,10.792,4.083Z" fill="#fff"/>
    </g>
  </g>
</svg>
