<svg id="Component_24_1" data-name="Component 24 – 1" xmlns="http://www.w3.org/2000/svg" width="32" height="32" viewBox="0 0 32 32">
  <g id="Ellipse_8" data-name="Ellipse 8" fill="none" stroke="#fff" stroke-width="1">
    <circle cx="16" cy="16" r="16" stroke="none"/>
    <circle cx="16" cy="16" r="15.5" fill="none"/>
  </g>
  <g id="twitter" transform="translate(8 -38.5)">
    <g id="Group_497" data-name="Group 497" transform="translate(0 48)">
      <path id="Path_6" data-name="Path 6" d="M16,49.539a6.839,6.839,0,0,1-1.89.518,3.262,3.262,0,0,0,1.443-1.813,6.555,6.555,0,0,1-2.08.794A3.28,3.28,0,0,0,7.8,51.281a3.378,3.378,0,0,0,.076.748A9.284,9.284,0,0,1,1.114,48.6a3.281,3.281,0,0,0,1.008,4.384,3.239,3.239,0,0,1-1.482-.4v.036a3.3,3.3,0,0,0,2.628,3.223,3.274,3.274,0,0,1-.86.108,2.9,2.9,0,0,1-.621-.056,3.311,3.311,0,0,0,3.065,2.285,6.591,6.591,0,0,1-4.067,1.4A6.144,6.144,0,0,1,0,59.528,9.234,9.234,0,0,0,5.032,61a9.272,9.272,0,0,0,9.336-9.334c0-.145-.005-.285-.012-.424A6.544,6.544,0,0,0,16,49.539Z" transform="translate(0 -48)" fill="#fff"/>
    </g>
  </g>
</svg>
