<svg id="Component_21_1" data-name="Component 21 – 1" xmlns="http://www.w3.org/2000/svg" width="32" height="32" viewBox="0 0 32 32">
  <path id="youtube" d="M15.387-4.361A1.968,1.968,0,0,0,14-5.746a45.986,45.986,0,0,0-6.147-.336,47.777,47.777,0,0,0-6.147.324,2.008,2.008,0,0,0-1.385,1.4A20.739,20.739,0,0,0,0-.582,20.663,20.663,0,0,0,.324,3.2,1.969,1.969,0,0,0,1.708,4.581a46.069,46.069,0,0,0,6.147.336A47.777,47.777,0,0,0,14,4.594,1.968,1.968,0,0,0,15.387,3.21a20.746,20.746,0,0,0,.323-3.779A19.687,19.687,0,0,0,15.387-4.361Zm-9.1,6.134V-2.937L10.379-.582Zm0,0" transform="translate(8.443 16.582)" fill="#fff"/>
  <g id="Ellipse_5" data-name="Ellipse 5" fill="none" stroke="#fff" stroke-width="1">
    <circle cx="16" cy="16" r="16" stroke="none"/>
    <circle cx="16" cy="16" r="15.5" fill="none"/>
  </g>
</svg>
